<svg width="203" height="60" viewBox="0 0 203 60" fill="none" xmlns="http://www.w3.org/2000/svg">
<path d="M74.112 43.252C71.784 43.252 69.636 42.712 67.668 41.632C65.724 40.528 64.176 39.004 63.024 37.06C61.896 35.092 61.332 32.884 61.332 30.436C61.332 27.988 61.896 25.792 63.024 23.848C64.176 21.904 65.724 20.392 67.668 19.312C69.636 18.208 71.784 17.656 74.112 17.656C76.464 17.656 78.612 18.208 80.556 19.312C82.524 20.392 84.072 21.904 85.2 23.848C86.328 25.792 86.892 27.988 86.892 30.436C86.892 32.884 86.328 35.092 85.2 37.06C84.072 39.004 82.524 40.528 80.556 41.632C78.612 42.712 76.464 43.252 74.112 43.252ZM74.112 39.688C75.768 39.688 77.244 39.316 78.54 38.572C79.836 37.804 80.844 36.724 81.564 35.332C82.308 33.916 82.68 32.284 82.68 30.436C82.68 28.588 82.308 26.968 81.564 25.576C80.844 24.184 79.836 23.116 78.54 22.372C77.244 21.628 75.768 21.256 74.112 21.256C72.456 21.256 70.98 21.628 69.684 22.372C68.388 23.116 67.368 24.184 66.624 25.576C65.904 26.968 65.544 28.588 65.544 30.436C65.544 32.284 65.904 33.916 66.624 35.332C67.368 36.724 68.388 37.804 69.684 38.572C70.98 39.316 72.456 39.688 74.112 39.688ZM89.5625 33.064C89.5625 31.024 89.9705 29.236 90.7865 27.7C91.6265 26.14 92.7785 24.94 94.2425 24.1C95.7065 23.26 97.3865 22.84 99.2825 22.84C101.682 22.84 103.662 23.416 105.222 24.568C106.806 25.696 107.874 27.316 108.426 29.428H103.998C103.638 28.444 103.062 27.676 102.27 27.124C101.478 26.572 100.482 26.296 99.2825 26.296C97.6025 26.296 96.2585 26.896 95.2505 28.096C94.2665 29.272 93.7745 30.928 93.7745 33.064C93.7745 35.2 94.2665 36.868 95.2505 38.068C96.2585 39.268 97.6025 39.868 99.2825 39.868C101.658 39.868 103.23 38.824 103.998 36.736H108.426C107.85 38.752 106.77 40.36 105.186 41.56C103.602 42.736 101.634 43.324 99.2825 43.324C97.3865 43.324 95.7065 42.904 94.2425 42.064C92.7785 41.2 91.6265 40 90.7865 38.464C89.9705 36.904 89.5625 35.104 89.5625 33.064ZM117.304 26.512V37.492C117.304 38.236 117.472 38.776 117.808 39.112C118.168 39.424 118.768 39.58 119.608 39.58H122.128V43H118.888C117.04 43 115.624 42.568 114.64 41.704C113.656 40.84 113.164 39.436 113.164 37.492V26.512H110.824V23.164H113.164V18.232H117.304V23.164H122.128V26.512H117.304ZM124.543 32.992C124.543 31 124.951 29.236 125.767 27.7C126.607 26.164 127.735 24.976 129.151 24.136C130.591 23.272 132.175 22.84 133.903 22.84C135.463 22.84 136.819 23.152 137.971 23.776C139.147 24.376 140.083 25.132 140.779 26.044V23.164H144.919V43H140.779V40.048C140.083 40.984 139.135 41.764 137.935 42.388C136.735 43.012 135.367 43.324 133.831 43.324C132.127 43.324 130.567 42.892 129.151 42.028C127.735 41.14 126.607 39.916 125.767 38.356C124.951 36.772 124.543 34.984 124.543 32.992ZM140.779 33.064C140.779 31.696 140.491 30.508 139.915 29.5C139.363 28.492 138.631 27.724 137.719 27.196C136.807 26.668 135.823 26.404 134.767 26.404C133.711 26.404 132.727 26.668 131.815 27.196C130.903 27.7 130.159 28.456 129.583 29.464C129.031 30.448 128.755 31.624 128.755 32.992C128.755 34.36 129.031 35.56 129.583 36.592C130.159 37.624 130.903 38.416 131.815 38.968C132.751 39.496 133.735 39.76 134.767 39.76C135.823 39.76 136.807 39.496 137.719 38.968C138.631 38.44 139.363 37.672 139.915 36.664C140.491 35.632 140.779 34.432 140.779 33.064ZM157.977 39.328L163.593 23.164H167.949L160.389 43H155.493L147.969 23.164H152.361L157.977 39.328ZM173.14 20.536C172.396 20.536 171.772 20.284 171.268 19.78C170.764 19.276 170.512 18.652 170.512 17.908C170.512 17.164 170.764 16.54 171.268 16.036C171.772 15.532 172.396 15.28 173.14 15.28C173.86 15.28 174.472 15.532 174.976 16.036C175.48 16.54 175.732 17.164 175.732 17.908C175.732 18.652 175.48 19.276 174.976 19.78C174.472 20.284 173.86 20.536 173.14 20.536ZM175.156 23.164V43H171.052V23.164H175.156ZM179.176 32.992C179.176 31 179.584 29.236 180.4 27.7C181.24 26.164 182.368 24.976 183.784 24.136C185.224 23.272 186.808 22.84 188.536 22.84C190.096 22.84 191.452 23.152 192.604 23.776C193.78 24.376 194.716 25.132 195.412 26.044V23.164H199.552V43H195.412V40.048C194.716 40.984 193.768 41.764 192.568 42.388C191.368 43.012 190 43.324 188.464 43.324C186.76 43.324 185.2 42.892 183.784 42.028C182.368 41.14 181.24 39.916 180.4 38.356C179.584 36.772 179.176 34.984 179.176 32.992ZM195.412 33.064C195.412 31.696 195.124 30.508 194.548 29.5C193.996 28.492 193.264 27.724 192.352 27.196C191.44 26.668 190.456 26.404 189.4 26.404C188.344 26.404 187.36 26.668 186.448 27.196C185.536 27.7 184.792 28.456 184.216 29.464C183.664 30.448 183.388 31.624 183.388 32.992C183.388 34.36 183.664 35.56 184.216 36.592C184.792 37.624 185.536 38.416 186.448 38.968C187.384 39.496 188.368 39.76 189.4 39.76C190.456 39.76 191.44 39.496 192.352 38.968C193.264 38.44 193.996 37.672 194.548 36.664C195.124 35.632 195.412 34.432 195.412 33.064Z" fill="#343434"/>
<rect y="4" width="52" height="52" rx="12" fill="#F4F4F4"/>
<path d="M25.72 44.28C23.1067 44.28 20.7067 43.6667 18.52 42.44C16.3333 41.2133 14.6 39.52 13.32 37.36C12.04 35.1733 11.4 32.7067 11.4 29.96C11.4 27.24 12.04 24.8 13.32 22.64C14.6 20.4533 16.3333 18.7467 18.52 17.52C20.7067 16.2933 23.1067 15.68 25.72 15.68C28.36 15.68 30.76 16.2933 32.92 17.52C35.1067 18.7467 36.8267 20.4533 38.08 22.64C39.36 24.8 40 27.24 40 29.96C40 32.7067 39.36 35.1733 38.08 37.36C36.8267 39.52 35.1067 41.2133 32.92 42.44C30.7333 43.6667 28.3333 44.28 25.72 44.28ZM25.72 39.28C27.4 39.28 28.88 38.9067 30.16 38.16C31.44 37.3867 32.44 36.2933 33.16 34.88C33.88 33.4667 34.24 31.8267 34.24 29.96C34.24 28.0933 33.88 26.4667 33.16 25.08C32.44 23.6667 31.44 22.5867 30.16 21.84C28.88 21.0933 27.4 20.72 25.72 20.72C24.04 20.72 22.5467 21.0933 21.24 21.84C19.96 22.5867 18.96 23.6667 18.24 25.08C17.52 26.4667 17.16 28.0933 17.16 29.96C17.16 31.8267 17.52 33.4667 18.24 34.88C18.96 36.2933 19.96 37.3867 21.24 38.16C22.5467 38.9067 24.04 39.28 25.72 39.28Z" fill="#4E5CA6"/>
</svg>
